<svg width="383" height="353" viewBox="0 0 383 353" fill="none" xmlns="http://www.w3.org/2000/svg">
<path d="M60.2966 329.829C61.5439 325.535 63.8234 321.514 66.4114 317.778C67.7142 315.879 69.1201 314.043 70.543 312.223C71.8967 310.466 73.2514 308.52 75.445 307.555C77.9322 306.45 80.6004 306.875 83.1816 307.456C85.1606 307.893 87.1744 308.251 89.2062 308.482C98.9346 309.608 109.567 309.352 117.91 314.819C119.197 315.662 119.792 317.178 118.94 318.496C118.819 318.685 118.663 318.857 118.489 319.014C118.256 320.746 117.953 322.477 117.599 324.193C117.138 326.444 116.265 328.613 113.95 329.798C111.807 330.873 109.136 331.031 106.773 331.428C104.048 331.886 101.341 332.343 98.6157 332.801C93.2696 333.7 87.9235 334.585 82.5946 335.484C77.3346 336.369 72.0213 337.568 66.6944 338.09C64.5223 338.299 62.233 337.892 60.8121 336.261C59.186 334.346 59.6817 331.969 60.2966 329.829Z" fill="#ADADAD"/>
<path d="M40.0499 311.675C40.8424 308.591 40.9089 305.929 43.1616 303.625C43.495 302.54 45.5174 301.385 46.1602 300.427C48.0019 297.664 51.1976 296.201 54.6115 295.747C57.6289 295.354 60.7484 295.183 63.0997 296.819C70.1697 298.844 76.6064 303.228 79.6037 309.516C83.4529 317.527 81.6423 327.065 73.8245 332.458C66.7158 337.366 56.636 337.451 49.2003 333.029C41.5241 328.48 37.9889 319.778 40.0499 311.675Z" fill="#C8C9C7"/>
<path d="M32.2471 332.998C32.7096 330.401 34.3772 327.968 36.9172 326.658C40.2348 324.943 44.109 325.391 47.6011 326.371C51.1276 327.368 54.4983 328.505 58.148 329.03C61.5911 329.538 65.14 329.605 68.6211 329.482C85.0784 328.928 101.096 323.707 117.681 325.029C119.042 325.131 120.209 325.909 120.512 327.109C123.139 328.809 124.829 331.718 123.95 334.833C123.071 337.932 120.079 339.932 117.091 341.271C113.723 342.78 110.218 344.084 106.679 345.231C92.4736 349.879 77.1114 351.794 62.0585 350.78C54.9969 350.316 47.3164 349.627 40.8537 346.818C35.01 344.248 31.1453 339.027 32.2471 332.998Z" fill="#DDE1DF"/>
<path d="M236.078 236.189C237.162 233.296 239.689 231.262 242.061 229.242C244.779 226.926 247.479 224.609 250.197 222.292C255.547 217.721 260.896 213.134 266.263 208.563L275.404 200.735C278.295 198.262 281.118 195.646 284.129 193.299C286.811 191.218 290.542 189.506 293.891 191.431C294.51 191.781 295.041 192.241 295.486 192.748C296.277 193.068 296.929 193.654 297.062 194.459C297.976 200.435 298.718 206.459 297.599 212.456C296.445 218.547 292.748 223.427 288.124 227.766C278.597 236.726 268.059 244.845 257.009 252.173C254.449 253.877 251.597 255.499 248.29 255.292C245.535 255.103 243.061 253.782 241.297 251.849C239.482 249.87 238.289 247.594 237.268 245.209C236.078 242.366 234.958 239.193 236.078 236.189Z" fill="#C8C9C7"/>
<path d="M264.584 151.229C267.112 145.792 270.632 138.831 277.515 137.199C281.518 136.245 285.887 137.592 286.294 141.786C286.44 143.394 286.017 145.062 285.784 146.652C285.48 148.715 285.158 150.777 284.837 152.839C283.64 160.38 282.272 167.889 280.766 175.381C281.673 176.331 281.907 177.766 280.574 178.862C277.389 181.475 274.41 184.311 271.739 187.384C269.416 190.05 267.324 194.277 262.966 194.142C261.743 194.104 260.404 193.324 260.152 192.157C257.109 178.479 258.602 164.085 264.584 151.229Z" fill="#ADADAD"/>
<path d="M233.466 169.98C233.531 167.523 233.908 164.799 235.505 162.744C237.501 160.17 241.524 158.57 244.544 160.777C245.745 161.65 246.359 162.836 246.903 164.131C247.6 165.805 248.211 167.51 248.856 169.2C250.096 172.452 251.335 175.721 252.558 178.989C255.325 186.395 257.988 193.831 260.6 201.283C261.143 202.846 260.154 203.991 258.826 204.393C258.618 204.518 258.394 204.611 258.152 204.704C252.576 206.706 247.254 209.292 242.275 212.337C240.771 213.258 238.33 212.346 237.977 210.706C236.516 203.938 235.4 197.109 234.645 190.25C233.89 183.549 233.291 176.723 233.466 169.98Z" fill="#ADADAD"/>
<path d="M273.865 186.293C275.497 171.664 277.182 156.783 282.584 142.837C285.206 136.076 288.621 129.272 293.443 123.564C296.079 120.443 299.418 117.972 303.831 117.571C307.589 117.23 311.18 118.999 313.059 121.956C314.938 124.881 315.176 128.538 314.985 131.846C314.718 136.493 314.124 141.138 313.701 145.784C313.683 145.988 313.647 146.193 313.577 146.398C313.797 147.187 313.62 148.068 312.806 148.804C300.059 160.551 288.822 173.582 279.319 187.663C277.894 189.782 273.556 189.065 273.865 186.293Z" fill="#C8C9C7"/>
<path d="M60.3667 264.706C62.5581 257.943 64.9215 251.228 67.2849 244.513C72.0293 231.036 76.7738 217.527 80.1074 203.695C81.7479 196.85 83.0442 189.94 83.7723 182.948C84.464 176.318 84.4176 169.196 89.3407 163.835C93.6224 159.163 100.902 157.675 106.48 161.409C112.677 165.572 113.879 172.48 113.963 179.067C114.061 186.268 114.383 193.408 115.342 200.567C116.301 207.726 117.709 214.84 119.237 221.908C119.859 224.795 120.497 227.682 121.153 230.569C131.183 230.231 141.213 229.751 151.227 229.13C161.344 228.493 171.547 227.92 181.599 226.636C186.461 226.017 191.307 225.193 196.052 223.991C198.364 223.405 200.66 222.725 202.904 221.933C205.062 221.173 207.188 219.925 209.431 219.417C212.105 218.818 214.563 219.808 215.825 222.053C216.985 224.123 217.851 226.397 218.839 228.546C220.933 233.048 223.251 237.504 225.104 242.084C226.328 245.101 224.524 247.218 222.479 249.412C220.503 251.513 218.544 253.613 216.568 255.714L207.295 265.605C205.7 270.512 200.775 273.195 195.783 275.373C190.446 277.707 185.451 280.468 180.695 283.687C171.114 290.204 162.714 298.02 153.406 304.838C143.684 311.938 132.899 317.991 120.431 319.876C112.792 321.03 105.04 320.893 97.3776 319.983C90.2837 319.14 82.9672 318.059 76.296 315.58C69.8998 313.212 64.3551 309.541 60.7847 304.054C57.334 298.74 55.9048 292.414 55.9562 286.285C56.0318 278.911 58.105 271.706 60.3667 264.706ZM210.97 224.578C210.953 224.594 210.935 224.61 210.901 224.609C211.208 225.037 211.091 224.39 210.97 224.578Z" fill="#DDE1DF"/>
<path d="M107.614 298.06C110.286 294.734 113.508 291.664 116.489 288.56C119.452 285.473 122.45 282.433 125.533 279.456C131.752 273.487 138.365 267.868 145.577 262.929C153.239 257.693 161.67 253.627 170.135 249.609C178.479 245.653 186.926 241.746 195.9 239.133C198.16 238.483 200.438 237.913 202.749 237.453C204.629 237.07 206.415 238.262 206.456 240.058C206.551 244.66 206.353 249.275 205.862 253.842C205.951 259.578 206.04 265.314 206.128 271.034C206.167 273.382 206.206 275.746 206.244 278.094C206.267 280.19 206.272 282.38 205.571 284.393C204.135 288.577 200.108 290.918 196.424 293.339C180.29 303.917 163.814 314.067 147.013 323.743C145.008 324.897 142.932 326.336 140.552 326.732C138.035 327.143 135.747 326.453 133.617 325.244C129.632 323 125.891 320.332 122.254 317.648C118.65 314.997 115.185 312.173 111.894 309.208C110.265 307.749 108.344 306.257 107.148 304.47C105.764 302.414 106.07 300.005 107.614 298.06Z" fill="#F6F5F4"/>
<path d="M55.771 260.679C56.2827 258.507 56.8981 256.304 57.7025 254.182C57.3396 245.104 61.6251 236.666 66.2697 228.719C68.8268 224.353 71.4872 220.003 73.3052 215.318C75.1406 210.601 76.2363 205.675 77.1425 200.748C77.5871 198.261 77.9971 195.789 78.4245 193.302C78.8165 190.988 78.9687 188.405 79.8253 186.188C80.962 183.185 83.9599 183.186 86.8885 183.265C89.8343 183.344 92.7629 183.424 95.7087 183.503C98.5684 183.582 101.584 183.41 104.39 183.898C107.075 184.354 108.995 186.224 109.498 188.654C109.985 191.02 109.919 193.541 109.923 195.936C109.943 198.473 109.86 201.025 109.708 203.561C109.047 213.894 106.957 224.14 103.491 233.985C104.387 233.879 105.301 233.79 106.197 233.685C110.507 233.204 115.078 232.3 119.435 232.75C123.499 233.182 127.382 235 129.206 238.508C130.843 241.669 130.806 245.198 130.046 248.582C129.233 252.233 127.405 255.689 125.509 258.956C123.386 262.647 120.937 266.179 118.351 269.615C113.594 275.954 108.631 282.277 103.206 288.171C98.2133 293.595 92.4819 298.684 85.6058 302.049C79.0752 305.243 70.6895 307.434 63.4676 304.825C59.7192 303.465 56.8211 301.006 55.255 297.594C53.6719 294.135 53.5381 290.336 53.5759 286.634C53.6415 277.968 53.7937 269.208 55.771 260.679Z" fill="#F6F5F4"/>
<path d="M85.3208 167.941C87.3465 163.083 88.8391 158.049 89.7809 152.918C90.6875 147.912 90.5088 142.885 91.1571 137.862C91.4638 135.39 91.808 132.366 94.3831 130.947C96.5607 129.746 99.7644 129.921 102.245 130.014C107.464 130.216 111.795 132.257 114.702 136.26C117.283 139.804 118.242 144.111 118.787 148.274C119.448 153.335 119.471 158.456 118.857 163.511C118.496 166.471 117.963 169.415 117.205 172.326C116.501 175.016 115.795 178.022 114.369 180.488C113.029 182.796 110.614 183.429 108.099 183.179C107.581 183.381 106.978 183.44 106.29 183.295C103.295 182.663 100.301 182.032 97.3064 181.401C94.5186 180.802 91.6266 180.345 88.8741 179.589C86.5517 178.946 84.2327 177.688 83.4871 175.446C82.6231 172.81 84.3428 170.299 85.3208 167.941Z" fill="#F6F5F4"/>
<path d="M213.675 218.669C213.692 218.669 213.709 218.669 213.709 218.653C213.813 218.528 213.934 218.418 214.056 218.309C215.267 217.291 217.097 216.655 218.531 215.939L234.755 207.757C240.163 205.029 245.571 202.302 250.98 199.575C253.174 198.468 255.56 196.874 258.045 196.195C262.063 189.489 266.802 183.165 272.176 177.287C274.984 174.214 277.964 171.268 281.098 168.481C282.691 167.056 284.335 165.679 286.014 164.349C287.727 162.987 289.476 161.532 291.668 160.866C291.926 160.789 292.168 160.727 292.427 160.681C297.065 147.771 306.982 136.607 319.77 129.714C323.071 127.936 326.577 126.459 330.202 125.281C332.308 124.6 334.687 124.219 336.523 125.663C338.358 127.107 338.465 129.535 338.264 131.598C337.843 136.055 335.684 140.076 333.595 144.035C331.453 148.073 329.225 152.079 326.963 156.052C325.658 158.33 324.353 160.623 323.031 162.901C321.9 164.88 320.821 166.906 319.346 168.694C317.317 171.173 314.394 173.031 311.24 173.376C311.494 174.055 311.68 174.749 311.727 175.475C311.887 177.76 310.618 179.802 309.487 181.749C308.304 183.791 307.104 185.817 305.904 187.843C303.521 191.816 301.087 195.773 298.601 199.683C295.959 203.844 293.471 208.305 290.21 212.1C288.181 214.452 285.07 216.325 281.864 216.512C281.897 216.749 281.896 217.001 281.877 217.237C281.69 219.805 278.699 221.758 276.846 223.417C268.898 230.495 260.213 236.907 251.016 242.56C248.422 244.153 245.778 245.682 243.099 247.148C240.368 248.646 237.603 250.19 234.633 251.245C229.713 252.998 223.033 252.094 220.681 247.464C220.15 246.973 219.844 246.278 219.762 245.537C218.895 237.244 213.284 230.059 211.589 221.935C211.321 220.531 212.07 219.054 213.675 218.669ZM332.435 129.548C332.436 129.406 332.436 129.312 332.436 129.312C332.247 129.342 332.298 129.437 332.435 129.548Z" fill="#DFE3E0"/>
<path d="M259.829 194.582C260.019 194.583 260.208 194.584 260.398 194.569C261.38 194.559 261.945 195.145 262.096 195.839C269.868 201.87 277.257 208.293 284.249 215.091C285.842 216.644 283.28 218.978 281.686 217.409C274.403 210.325 266.67 203.649 258.539 197.395C257.269 196.443 258.365 194.605 259.829 194.582Z" fill="#C8C9C7"/>
<path d="M291.288 160.722C291.757 160.016 292.965 159.613 293.772 160.137C300.123 164.38 306.683 168.34 313.45 172.001C315.46 173.084 313.618 175.941 311.608 174.843C304.84 171.181 298.281 167.221 291.93 162.979C291.14 162.47 290.749 161.539 291.288 160.722Z" fill="#C8C9C7"/>
<path d="M212.114 217.337C213.131 217.09 214.007 217.662 214.33 218.499C217.439 226.348 221.584 233.823 226.627 240.784C227.175 241.528 226.772 242.613 225.96 243.05C225.062 243.517 224.03 243.196 223.482 242.437C218.268 235.239 214.038 227.479 210.827 219.362C210.505 218.525 211.216 217.552 212.114 217.337Z" fill="#C8C9C7"/>
<path d="M208.148 261.087C208.919 255.655 211.377 250.611 214.813 246.155C218.353 241.558 222.684 237.454 227.373 233.825C229.796 231.963 232.355 230.276 235.375 229.316C238.465 228.34 241.927 228.501 244.971 229.542C248.41 230.728 251.346 232.682 254.211 234.746C257.009 236.779 259.512 238.983 260.752 242.141C261.024 242.836 261.227 243.531 261.361 244.209C262.99 248.709 262.185 253.873 259.63 257.987C259.612 258.018 259.595 258.034 259.578 258.065C258.422 261.368 256.063 264.285 253.07 266.506C248.243 270.056 242.304 272.229 236.318 273.55C229.797 274.995 222.938 275.335 216.328 274.101C213.179 273.516 210.292 272.145 208.929 269.348C207.72 266.789 207.754 263.827 208.148 261.087Z" fill="#F6F5F4"/>
<path d="M82.2831 178.308C83.6823 177.654 85.625 178.405 87.0535 178.665C88.8091 178.99 90.5647 179.299 92.3205 179.577C99.2059 180.671 106.163 181.34 113.156 181.631C115.481 181.723 115.463 185.032 113.138 184.94C108.056 184.722 102.993 184.316 97.9486 183.689C95.4005 183.376 92.8699 183.015 90.3567 182.607C89.1518 182.411 87.947 182.2 86.7422 181.972C86.0881 181.858 85.4342 181.729 84.7802 181.599C84.6253 181.567 84.4704 181.534 84.3328 181.502C83.9869 181.736 83.5208 181.891 83.0041 181.873C80.7473 181.829 80.4693 179.164 82.2831 178.308Z" fill="#C8C9C7"/>
<path d="M56.4026 252.631C57.3012 252.163 58.3331 252.484 58.8803 253.243C60.4532 255.426 63.3587 256.561 66.1315 256.766C69.7654 257.038 73.2694 255.876 76.4311 254.318C79.7482 252.698 82.9121 250.746 85.973 248.73C88.9301 246.793 91.7503 244.666 94.3307 242.301C97.1882 239.685 99.651 236.784 101.564 233.517C102.66 231.648 105.787 233.336 104.674 235.205C100.829 241.738 94.8394 246.873 88.3369 251.202C85.0684 253.374 81.6624 255.497 78.0862 257.227C74.4927 258.971 70.4536 260.304 66.3371 260.06C62.1344 259.816 58.0949 258.139 55.7355 254.864C55.1882 254.137 55.5905 253.052 56.4026 252.631Z" fill="#DDE1DF"/>
<path d="M277.857 156.377C278.326 155.639 279.517 155.299 280.341 155.792C280.839 156.11 281.925 155.959 282.579 156.01C283.63 156.094 284.68 156.226 285.713 156.39C287.744 156.7 289.723 157.2 291.649 157.857C292.56 158.161 293.176 158.984 292.895 159.896C292.649 160.698 291.578 161.354 290.666 161.034C288.637 160.345 286.555 159.829 284.421 159.518C283.439 159.371 282.441 159.286 281.442 159.249C280.408 159.196 279.357 159.19 278.482 158.634C277.692 158.141 277.335 157.178 277.857 156.377Z" fill="#ADADAD"/>
<path d="M287.993 214.23C288.463 213.508 289.671 213.137 290.478 213.645C292.263 214.805 294.048 215.95 295.834 217.11C296.623 217.619 296.997 218.566 296.476 219.383C296.006 220.105 294.798 220.476 293.991 219.967C292.206 218.807 290.421 217.663 288.635 216.503C287.829 215.978 287.472 215.031 287.993 214.23Z" fill="#979996"/>
<path d="M260.939 171.662C265.108 171.748 269.259 171.944 273.427 172.267C274.408 172.336 275.232 172.986 275.227 173.932C275.222 174.767 274.39 175.644 273.408 175.576C269.258 175.253 265.09 175.057 260.921 174.97C258.595 174.91 258.614 171.601 260.939 171.662Z" fill="#979996"/>
<path d="M234.962 189.306C241.851 189.849 248.295 186.608 255.103 186.141C256.086 186.068 256.908 186.971 256.903 187.806C256.897 188.767 256.067 189.377 255.085 189.45C248.242 189.916 241.918 193.174 234.944 192.615C233.962 192.547 233.139 191.896 233.144 190.951C233.149 190.116 233.98 189.238 234.962 189.306Z" fill="#979996"/>
<path d="M192.191 224.253C192.969 223.848 194.26 224.044 194.669 224.866C196.543 228.721 197.536 232.839 197.461 237.061C197.432 239.188 193.814 239.168 193.843 237.041C193.897 233.433 193.142 229.82 191.524 226.518C191.132 225.697 191.275 224.736 192.191 224.253Z" fill="#C8C9C7"/>
<path d="M118.18 229.261C118.197 229.261 118.214 229.261 118.231 229.261C118.266 229.246 118.283 229.23 118.318 229.214C118.581 228.381 119.618 227.788 120.547 228.077C121.476 228.35 122.091 229.236 121.793 230.116C121.32 231.563 119.815 232.626 118.144 232.585C117.196 232.564 116.288 231.819 116.344 230.921C116.418 230.023 117.181 229.24 118.18 229.261Z" fill="#C8C9C7"/>
<path d="M108.499 296.962C112.172 296.399 115.195 298.071 118.392 299.428C119.75 300.003 121.229 300.499 122.711 300.334C124.297 300.154 125.698 299.232 126.875 298.293C129.834 295.946 132.554 293.314 135.376 290.84C138.199 288.351 141.038 285.861 143.895 283.388C155.286 273.587 167.193 264.121 180.588 256.648C188.071 252.467 196.016 248.982 204.352 246.46C206.561 245.794 207.491 248.983 205.299 249.648C190.647 254.088 177.424 261.72 165.417 270.492C153.152 279.469 142.068 289.617 130.745 299.528C129.169 300.906 127.49 302.236 125.453 303.013C125.384 303.044 125.298 303.059 125.229 303.09C126.805 307.684 128.434 312.326 131.323 316.407C132.741 318.416 134.489 320.159 136.548 321.636C138.779 323.256 141.08 324.718 142.653 326.933C143.918 328.72 140.79 330.373 139.525 328.586C138.055 326.513 135.598 325.176 133.557 323.636C131.378 322.001 129.562 320.006 128.058 317.839C125.067 313.52 123.337 308.579 121.676 303.732C121.659 303.685 121.659 303.653 121.642 303.606C120.867 303.57 120.109 303.455 119.353 303.246C117.495 302.748 115.776 301.871 114.023 301.121C112.597 300.498 110.946 299.906 109.446 300.134C108.48 300.286 107.5 299.887 107.23 298.972C106.993 298.198 107.533 297.114 108.499 296.962Z" fill="#DDE1DF"/>
<path d="M211.061 269.99C214.321 263.06 218.854 256.672 224.364 251.062C227.067 248.319 230.01 245.767 233.176 243.469C235.356 241.874 237.622 240.358 240.058 239.158C238.351 236.155 236.766 233.089 235.302 229.961C234.91 229.14 235.053 228.179 235.969 227.696C236.73 227.291 238.055 227.471 238.447 228.309C239.945 231.5 241.565 234.644 243.322 237.727C243.322 237.743 243.339 237.743 243.339 237.758C243.633 237.65 243.943 237.557 244.237 237.464C248.758 236.087 254.013 236.211 258.082 238.66C260.023 239.821 258.198 242.679 256.24 241.502C249.354 237.367 241.214 241.796 235.713 245.815C229.727 250.178 224.512 255.396 220.31 261.234C217.931 264.545 215.879 268.032 214.17 271.662C213.786 272.48 212.459 272.661 211.686 272.247C210.758 271.754 210.66 270.808 211.061 269.99Z" fill="#DDE1DF"/>
<path d="M55.2582 291.118C55.7273 290.412 56.9356 290.009 57.7425 290.533C62.6176 293.775 68.8637 295.244 74.8469 294.426C81.4509 293.518 86.6917 289.891 91.3838 285.773C96.2145 281.53 100.857 277.081 105.293 272.489C109.712 267.928 113.908 263.162 117.589 258.061C121.704 252.396 125.184 246.333 127.615 239.886C128.367 237.889 131.86 238.76 131.09 240.788C126.508 252.974 118.454 263.66 109.286 273.315C104.676 278.174 99.7909 282.858 94.7693 287.352C89.7996 291.799 84.1938 295.991 77.2427 297.355C69.9294 298.795 61.9599 297.395 55.8831 293.359C55.0934 292.851 54.7195 291.935 55.2582 291.118Z" fill="#DDE1DF"/>
<path d="M45.2697 299.587C45.5153 298.801 46.5874 298.098 47.4986 298.449C52.3986 300.273 57.8996 302.478 60.5624 306.952C62.1156 309.576 62.2539 312.571 62.3411 315.486C62.4278 318.464 62.2378 321.646 60.5519 324.268C58.9008 326.843 55.7193 328.889 52.3445 328.524C51.3802 328.424 50.5394 327.82 50.5447 326.859C50.5493 326.04 51.3815 325.115 52.3629 325.215C54.4808 325.448 56.2962 324.307 57.3735 322.675C58.746 320.618 58.7947 318.066 58.7388 315.734C58.6827 313.433 58.7314 310.897 57.5543 308.794C56.599 307.087 55.0557 305.771 53.3213 304.737C51.2093 303.465 48.8715 302.506 46.5332 301.643C45.622 301.291 44.9889 300.515 45.2697 299.587Z" fill="#ADADAD"/>
<path d="M42.1665 306.156C42.6358 305.418 43.8265 305.078 44.6507 305.571C49.0117 308.29 53.5076 311.529 54.1336 316.669C54.6935 321.305 50.4988 325.851 45.1976 324.892C44.2338 324.713 43.6884 323.654 43.9513 322.852C44.2321 321.94 45.2164 321.536 46.1802 321.714C47.4366 321.942 48.7843 321.256 49.5991 320.347C50.6567 319.171 50.7691 317.549 50.3807 316.129C49.4184 312.594 45.9161 310.368 42.8084 308.445C42.0016 307.92 41.6451 306.957 42.1665 306.156Z" fill="#ADADAD"/>
<path d="M180.229 268.7C180.427 267.078 181.485 265.807 183.177 265.202C185.646 264.318 188.191 265.104 189.957 266.674C190.198 266.801 190.403 266.992 190.54 267.244C190.745 267.482 190.951 267.735 191.139 267.988C192.164 269.475 192.671 271.195 193.162 272.868C193.753 274.92 194.362 276.972 194.953 279.039C195.291 280.223 195.63 281.391 195.985 282.574C196.801 284.485 197.6 286.412 198.261 288.37C199.261 291.416 200.458 296.024 196.76 298.036C195.118 298.94 193.069 298.771 191.68 297.55C190.446 296.456 189.662 294.829 188.86 293.469C185.207 287.32 182.522 280.687 180.993 273.856C180.605 272.215 180.03 270.369 180.229 268.7Z" fill="#DDE1DF"/>
<path d="M169.722 292.544C170.02 291.664 170.644 290.927 171.543 290.396C171.629 290.349 171.733 290.287 171.819 290.24C172.391 289.755 173.048 289.349 173.739 289.053C175.138 288.431 177.174 287.843 178.687 288.435C180.801 289.266 180.701 291.707 179.865 293.326C179.099 294.803 177.629 295.771 176.024 296.377C175.022 296.875 173.866 297.153 172.799 296.942C171.782 296.889 170.819 296.553 170.083 295.776C169.124 294.794 169.096 293.534 169.722 292.544Z" fill="#DDE1DF"/>
<path d="M155.887 298.801C157.547 297.739 160.327 296.605 162.392 297.152C162.839 297.265 163.183 297.44 163.457 297.662C163.921 297.822 164.316 298.171 164.485 298.723C165.179 300.933 163.617 302.862 161.767 304.113C160.885 304.706 159.952 305.174 158.951 305.546C158.191 305.842 157.397 306.137 156.569 306.211C155.966 306.365 155.328 306.424 154.674 306.216C153.573 305.895 152.786 304.976 152.55 303.951C152.046 301.758 154.089 299.942 155.887 298.801Z" fill="#DDE1DF"/>
<path d="M63.4424 65.5877C64.359 61.8742 70.291 60.9776 72.4784 64.2042C72.9911 64.9476 73.2445 65.863 73.2051 66.7451C83.4675 70.9779 93.5903 75.5409 103.505 80.4178C109.347 83.2866 115.119 86.2811 120.822 89.3698C127.777 81.0731 134.75 72.7766 141.705 64.48C143.075 62.8331 144.463 61.2021 145.833 59.5553C145.715 59.1607 145.631 58.7663 145.616 58.3566C145.546 55.4096 148.726 53.7414 151.532 54.1982C151.963 54.1218 152.428 54.1875 152.857 54.3632C156.106 55.6891 156.374 60.2129 153.881 62.2789C152.047 63.7971 149.722 63.532 148.006 62.3722C141.779 69.7905 135.552 77.2245 129.308 84.6427C127.504 86.7914 125.7 88.94 123.914 91.073C127.486 93.0468 131.042 95.052 134.562 97.12C137.121 98.6154 139.68 100.142 142.204 101.685C143.44 102.448 144.694 103.211 145.93 103.975C147.08 104.69 148.283 105.39 149.26 106.309C151.471 108.402 151.576 111.081 151.561 113.823C151.544 116.801 151.51 119.794 151.494 122.772C151.404 132.604 151.333 142.42 151.243 152.252C166.446 141.858 181.666 131.465 196.869 121.087C201.141 118.164 205.413 115.242 209.684 112.335C209.668 112.224 209.651 112.098 209.669 111.956C210.262 101.403 210.459 90.8466 210.259 80.2883C209.126 79.5887 208.271 78.5124 207.846 77.3441C206.286 72.9234 212.402 69.9795 216.355 71.6717C218.229 72.47 219.39 74.3043 219.276 76.1945C219.163 77.9429 217.948 79.5118 216.119 79.9271C215.496 80.4751 214.719 80.8489 213.874 81.0018C214.057 91.3393 213.844 101.675 213.27 111.992C213.232 112.559 212.955 112.967 212.574 113.233C212.76 113.943 212.377 114.619 211.72 115.056C196.275 125.606 180.83 136.156 165.385 146.706C161.027 149.675 156.685 152.661 152.327 155.63C151.998 155.849 151.585 155.91 151.189 155.844L151.176 158.145C151.075 169.978 150.975 181.795 150.875 193.628C150.866 195.093 150.858 196.558 150.833 198.024C150.821 200.151 147.203 200.131 147.215 198.003C147.314 186.391 147.413 174.763 147.513 163.151C147.612 151.475 147.712 139.816 147.811 128.141L147.877 119.349C147.885 117.93 147.893 116.528 147.918 115.11C147.926 113.771 148.054 112.385 147.855 111.044C147.507 108.6 145.049 107.468 143.023 106.212C140.585 104.701 138.147 103.222 135.674 101.759C125.679 95.8257 115.459 90.238 105.012 85.0115C94.6175 79.801 84.014 74.936 73.2361 70.4482C72.7032 70.2246 72.1532 70.0009 71.6203 69.7774C71.3257 70.0751 70.997 70.3254 70.6511 70.5598C67.0208 72.714 62.5259 69.2697 63.4424 65.5877Z" fill="#ABD0EF"/>
<path d="M83.7342 109.615C94.0735 109.342 104.427 109.51 114.762 110.135C115.744 110.188 116.567 110.87 116.562 111.8C116.557 112.65 115.725 113.497 114.743 113.444C104.426 112.819 94.0723 112.635 83.7158 112.924C81.3722 112.99 81.4079 109.681 83.7342 109.615Z" fill="#ABD0EF"/>
<path d="M64.4888 100.495C72.5183 100.351 80.565 100.191 88.5945 100.046C90.9207 99.9963 90.9022 103.305 88.576 103.355C80.5466 103.499 72.4998 103.659 64.4703 103.804C62.1442 103.838 62.1627 100.529 64.4888 100.495Z" fill="#ABD0EF"/>
<path d="M56.1766 108.075C60.0687 108.365 63.978 108.654 67.87 108.96C68.8517 109.028 69.6751 109.679 69.6698 110.624C69.6651 111.459 68.8332 112.337 67.8516 112.268C63.9595 111.979 60.0501 111.689 56.1581 111.384C55.1764 111.315 54.3531 110.665 54.3584 109.719C54.363 108.884 55.1949 108.006 56.1766 108.075Z" fill="#ABD0EF"/>
<path d="M64.3463 116.771C69.3922 117.162 74.4742 117.253 79.5407 117.045C81.8671 116.948 81.8487 120.256 79.5222 120.354C74.4559 120.546 69.3911 120.455 64.3279 120.08C63.3462 120.011 62.5229 119.361 62.5281 118.415C62.5329 117.565 63.382 116.687 64.3463 116.771Z" fill="#ABD0EF"/>
<path d="M207.95 154.522C208.036 154.459 208.123 154.397 208.209 154.334C208.365 154.162 208.556 154.021 208.78 153.928C222.1 144.422 235.231 134.694 248.174 124.761C251.566 122.148 254.957 119.536 258.332 116.892C258.213 116.67 258.145 116.418 258.164 116.119C258.552 105.28 258.922 94.4571 259.31 83.6185C259.576 76.104 259.842 68.6051 260.108 61.0906C259.867 61.0577 259.626 60.9776 259.385 60.8344C253.478 57.2877 247.623 53.6467 241.838 49.9431C238.971 48.0993 236.104 46.2397 233.271 44.3646C230.37 42.4418 227.348 40.5814 224.568 38.5018C224.534 38.4701 224.5 38.4541 224.466 38.4224C223.775 38.7179 223.033 38.8714 222.223 38.8353C218.003 38.607 216.479 33.8871 218.202 30.8714C220.237 27.3217 226.613 27.1524 228.678 30.7723C229.804 32.7482 229.291 35.1404 227.818 36.6448C228.316 36.9785 228.814 37.3122 229.311 37.6616C230.427 38.4241 231.56 39.171 232.676 39.9178C234.924 41.4115 237.173 42.9052 239.439 44.3833C244.023 47.3711 248.641 50.2961 253.294 53.1741C255.595 54.5893 257.896 56.0045 260.214 57.404C260.295 55.2615 260.359 53.119 260.44 50.9765C260.624 45.7619 260.808 40.5632 260.992 35.3487C260.682 35.2524 260.39 35.1405 260.098 34.9813C258.106 33.8987 257.034 31.4661 257.872 29.4539C258.78 27.253 261.82 25.9464 264.121 27.2828C264.602 27.5691 264.979 27.9336 265.235 28.3447C266.574 29.2819 267.323 30.846 266.831 32.545C266.498 33.6776 265.666 34.5396 264.629 35.0538C264.28 45.089 263.931 55.1085 263.565 65.1436C263.564 65.3169 263.546 65.4902 263.545 65.6792C269.671 61.0021 275.813 56.3093 281.939 51.6321C285.451 48.9415 288.981 46.251 292.494 43.5604C293.203 43.0128 293.964 42.4971 294.571 41.8387C295.143 41.2116 295.388 40.4409 295.513 39.638C295.852 37.6387 295.898 35.5591 296.047 33.5273C296.291 29.9833 296.414 26.4387 296.451 22.8778C296.331 22.7984 296.228 22.719 296.108 22.6238C295.113 21.7516 294.655 20.4885 294.524 19.2587C294.394 17.9187 294.678 16.4549 295.854 15.5633C296.927 14.7657 298.427 14.5534 299.734 14.9862C299.751 14.9863 299.769 15.0021 299.803 15.0023C300.13 15.0514 300.422 15.1948 300.679 15.4326C301.83 16.1796 302.357 17.3958 302.316 18.6247C302.416 19.0822 302.466 19.5394 302.394 20.0275C302.249 21.3187 301.449 22.5906 300.154 23.1821C300.119 23.1977 300.085 23.2132 300.05 23.2288C300.016 26.3012 299.895 29.3731 299.706 32.4447C299.573 34.5554 299.424 36.666 299.223 38.7763C299.077 40.2251 298.811 41.5787 298.115 42.8039C298.183 42.8515 298.252 42.8992 298.32 42.9626C311.828 55.3126 326.099 66.942 341.079 77.7875C344.786 80.4711 348.527 83.1076 352.321 85.6814C356.08 88.255 359.96 90.6874 363.736 93.2454C365.504 94.4527 367.168 95.8014 368.053 97.6971C368.99 99.735 368.925 101.988 368.965 104.147C369.077 108.859 369.171 113.586 369.282 118.298C369.474 127.171 369.683 136.027 369.875 144.899C369.909 144.915 369.944 144.915 369.961 144.931C372.866 146.066 374.505 148.738 374.766 151.513C375.55 152.888 375.731 154.559 374.964 156.036C373.17 159.509 368.067 160.205 364.735 158.296C361.214 156.275 358.553 151.454 360.572 147.81C361.651 145.862 363.897 144.693 366.242 144.454C366.077 136.984 365.912 129.514 365.729 122.044C365.617 117.427 365.522 112.825 365.41 108.208C365.354 105.891 365.402 103.544 365.225 101.211C365.081 99.335 364.313 97.9757 362.786 96.7539C361.208 95.4845 359.353 94.45 357.654 93.3217C355.765 92.0822 353.877 90.8268 351.989 89.5558C348.161 86.966 344.368 84.3135 340.61 81.6296C333.214 76.3413 325.991 70.8491 318.941 65.1846C310.999 58.7902 303.283 52.1766 295.792 45.3435C294.528 46.3922 293.127 47.3298 291.847 48.3154C290.047 49.6919 288.23 51.0684 286.431 52.445C282.815 55.198 279.215 57.9512 275.599 60.72C271.516 63.8329 267.432 66.9615 263.348 70.0743C263.063 78.0142 262.795 85.9542 262.509 93.8784C270.365 87.8558 277.895 81.4847 285.049 74.7649C284.775 74.4639 284.553 74.1161 284.365 73.7526C283.105 71.0984 285.173 67.9743 288.259 67.5503C289.932 67.3233 291.72 67.8848 292.591 69.2762C293.377 70.5097 293.454 72.0858 293.188 73.4552C292.887 74.9661 291.777 76.3308 290.155 76.7945C289.378 77.0107 288.603 77.0222 287.88 76.829C279.93 84.3165 271.517 91.3917 262.693 98.0235C262.589 98.1017 262.468 98.1798 262.347 98.2421C262.142 104.118 261.937 109.995 261.732 115.871C261.818 115.918 261.886 115.982 261.955 116.045C262.606 116.648 262.686 117.798 261.942 118.377C248.842 128.641 235.536 138.698 222.042 148.534C218.53 151.099 214.984 153.647 211.438 156.18C211.708 166.55 211.977 176.935 212.247 187.305C212.304 189.432 208.686 189.412 208.628 187.284C208.375 177.151 208.104 167.002 207.85 156.869C207.303 156.252 207.189 155.069 207.95 154.522ZM363.553 150.883C363.651 151.798 364.076 152.745 364.623 153.552C364.011 152.068 363.848 150.428 364.27 148.839C364.271 148.807 364.271 148.76 364.271 148.728C363.699 149.277 363.454 149.953 363.553 150.883Z" fill="#ABD0EF"/>
<path d="M298.28 96.7723C302.949 96.625 307.582 96.9187 312.196 97.5904C313.16 97.7376 313.688 98.8435 313.442 99.6299C313.161 100.574 312.177 100.915 311.213 100.768C306.927 100.145 302.586 99.9318 298.261 100.081C295.935 100.163 295.953 96.8538 298.28 96.7723Z" fill="#ABD0EF"/>
<path d="M309.359 90.4211C313.836 90.9817 318.349 91.1172 322.847 90.8114C323.83 90.7381 324.652 91.6408 324.647 92.4759C324.642 93.437 323.811 94.0468 322.829 94.1201C318.331 94.4259 313.817 94.2905 309.341 93.7298C308.377 93.6141 307.536 93.0422 307.541 92.0653C307.546 91.2618 308.378 90.3053 309.359 90.4211Z" fill="#ABD0EF"/>
<path d="M283.212 104.535C286.897 104.808 290.583 105.096 294.285 105.369C295.267 105.437 296.09 106.088 296.085 107.033C296.08 107.868 295.249 108.746 294.267 108.678C290.581 108.405 286.896 108.116 283.193 107.844C282.212 107.775 281.388 107.125 281.394 106.179C281.398 105.344 282.23 104.466 283.212 104.535Z" fill="#ABD0EF"/>
<path d="M317.243 104.095C320.844 104.115 324.426 104.403 327.973 104.863C328.937 104.995 329.465 106.132 329.219 106.903C328.921 107.862 327.954 108.172 326.99 108.041C323.754 107.613 320.481 107.422 317.208 107.387C314.899 107.375 314.918 104.066 317.243 104.095Z" fill="#ABD0EF"/>
<path d="M46.2908 138.257C46.9488 137.662 48.2069 137.591 48.8406 138.272C50.0908 139.618 51.6365 140.493 53.5122 140.897C55.7837 141.383 54.8011 144.576 52.5297 144.075C50.1033 143.557 47.8876 142.331 46.2606 140.589C45.644 139.924 45.5634 138.931 46.2908 138.257Z" fill="#ABD0EF"/>
<path d="M31.2769 136.425C32.8461 136.165 34.4326 135.906 36.0019 135.647C36.9676 135.495 37.9474 135.895 38.218 136.81C38.4547 137.615 37.9146 138.683 36.949 138.835C35.3797 139.095 33.7932 139.354 32.2239 139.613C31.2583 139.765 30.2784 139.365 30.0079 138.45C29.7539 137.645 30.3111 136.593 31.2769 136.425Z" fill="#ABD0EF"/>
<path d="M17.2724 151.158C18.0776 148.878 19.7422 146.98 22.04 145.827C24.0788 144.799 25.8891 147.661 23.8504 148.689C22.3817 149.437 21.2727 150.581 20.7476 152.06C20.03 154.072 16.5547 153.186 17.2724 151.158Z" fill="#ABD0EF"/>
<path d="M22.7589 165.291C23.5951 166.714 24.4141 168.152 25.2504 169.575C26.3426 171.456 23.2149 173.109 22.1227 171.228C21.2865 169.805 20.4675 168.367 19.6312 166.944C18.539 165.063 21.6667 163.41 22.7589 165.291Z" fill="#ABD0EF"/>
<path d="M30.6931 179.107C31.2146 178.29 32.3009 178.123 33.1773 178.522C34.7583 179.256 36.3393 179.989 37.903 180.723C38.7795 181.121 39.0143 182.257 38.5451 182.995C38.0236 183.812 36.9373 183.979 36.0608 183.58C34.4799 182.846 32.8989 182.113 31.3352 181.379C30.4588 180.965 30.2239 179.829 30.6931 179.107Z" fill="#ABD0EF"/>
<path d="M101.833 30.8522C102.316 27.7194 102.798 24.5708 103.281 21.438C103.424 20.5564 104.667 20.0749 105.51 20.3002C106.559 20.5739 106.899 21.4581 106.756 22.3397C106.274 25.4725 105.791 28.6211 105.308 31.7539C105.166 32.6355 103.922 33.117 103.079 32.8917C102.047 32.6338 101.707 31.7496 101.833 30.8522Z" fill="#ABD0EF"/>
<path d="M92.7137 1.06829C93.3717 0.47322 94.6298 0.401455 95.2635 1.08251C96.8391 2.77723 98.4147 4.47194 100.008 6.16675C100.641 6.84781 100.722 7.84091 99.9945 8.49862C99.3365 9.09369 98.0784 9.16546 97.4448 8.4844C95.8691 6.78969 94.2935 5.09497 92.7007 3.40016C92.067 2.7191 91.9864 1.726 92.7137 1.06829Z" fill="#ABD0EF"/>
<path d="M71.3183 3.48606C73.1812 3.10254 75.0613 2.70337 76.9242 2.31985C79.1838 1.844 80.148 5.04791 77.8712 5.50791C76.0084 5.89143 74.1282 6.29061 72.2653 6.67413C69.9884 7.16563 69.0414 3.96181 71.3183 3.48606Z" fill="#ABD0EF"/>
<path d="M54.7942 18.9616C55.0965 17.2774 55.3988 15.5931 55.6839 13.9088C55.8438 13.0273 57.0526 12.5456 57.9128 12.771C58.9451 13.0288 59.319 13.929 59.1591 14.8105C58.8568 16.4947 58.5545 18.179 58.2694 19.8633C58.1095 20.7448 56.9008 21.2265 56.0406 21.0011C55.0255 20.7433 54.6343 19.8431 54.7942 18.9616Z" fill="#ABD0EF"/>
<path d="M60.4691 33.1905C61.2639 32.7695 62.5031 32.997 62.9466 33.8031C63.8332 35.4624 65.1525 36.7776 66.922 37.6855C68.9492 38.7368 67.1071 41.5784 65.0799 40.5272C62.8122 39.3643 60.9614 37.5893 59.8189 35.4558C59.3755 34.6497 59.5878 33.6583 60.4691 33.1905Z" fill="#ABD0EF"/>
<path d="M78.6687 44.6686L83.4065 44.695C85.7323 44.708 85.7139 48.0167 83.3881 48.0037L78.6503 47.9773C76.3245 47.9643 76.3429 44.6556 78.6687 44.6686Z" fill="#ABD0EF"/>
<path d="M95.2668 40.7587L99.19 38.5589C101.178 37.4355 102.988 40.3133 101 41.4209L97.0771 43.6206C95.0724 44.7282 93.2793 41.8663 95.2668 40.7587Z" fill="#ABD0EF"/>
<path d="M368.084 24.27C371.048 27.3275 372.248 31.3364 371.502 35.3501C371.342 36.2315 370.134 36.7132 369.274 36.4878C368.258 36.2301 367.85 35.3297 368.027 34.4483C368.542 31.6623 367.56 28.6946 365.521 26.5877C363.979 25.0035 366.542 22.6701 368.084 24.27Z" fill="#ABD0EF"/>
<path d="M347.823 18.0275C348.362 17.1797 349.396 17.0909 350.307 17.4426C351.768 18.0338 353.353 18.1372 354.922 17.9726C355.887 17.8677 356.726 18.8177 356.721 19.637C356.716 20.6139 355.886 21.1765 354.903 21.2813C352.662 21.5209 350.511 21.115 348.465 20.2843C347.554 19.9326 347.371 18.7183 347.823 18.0275Z" fill="#ABD0EF"/>
<path d="M335.109 33.209C336.185 31.7812 337.278 30.3535 338.354 28.9256C338.91 28.1882 339.945 27.8631 340.839 28.3407C341.629 28.7706 342.036 29.8758 341.481 30.6132C340.404 32.0411 339.311 33.4688 338.235 34.8966C337.679 35.6341 336.644 35.9592 335.751 35.4815C334.961 35.0359 334.553 33.9465 335.109 33.209Z" fill="#ABD0EF"/>
<path d="M342.352 44.4371C342.963 46.1895 344.798 47.5547 346.831 47.6921C347.812 47.7606 348.636 48.427 348.63 49.3566C348.626 50.2074 347.794 51.0694 346.812 51.0009C343.127 50.7597 339.986 48.5363 338.85 45.2999C338.138 43.2634 341.64 42.4163 342.352 44.4371Z" fill="#ABD0EF"/>
<path d="M358.22 47.7241L362.191 46.2967C363.106 45.9709 364.17 46.6701 364.407 47.4593C364.677 48.4061 364.053 49.159 363.138 49.4848L359.167 50.9122C358.252 51.238 357.188 50.5388 356.951 49.7496C356.663 48.8184 357.305 48.0657 358.22 47.7241Z" fill="#ABD0EF"/>
<path d="M62.8256 151.27C63.2488 152.628 63.9136 153.908 64.8722 155.016C65.4713 155.713 65.6038 156.674 64.8592 157.348C64.2185 157.927 62.9085 158.03 62.3094 157.334C60.9571 155.766 59.9329 154.043 59.3406 152.117C58.6973 150.081 62.1824 149.218 62.8256 151.27Z" fill="#ABD0EF"/>
<path d="M57.9747 171.806C58.2745 170.563 58.5916 169.32 58.8914 168.077C59.103 167.211 60.2257 166.698 61.1202 166.939C62.1008 167.196 62.5954 168.113 62.3666 168.978C62.0668 170.222 61.7497 171.464 61.4499 172.708C61.2383 173.573 60.1155 174.087 59.221 173.845C58.2576 173.588 57.7631 172.671 57.9747 171.806Z" fill="#ABD0EF"/>
<path d="M46.674 180.661C48.7308 179.475 51.1976 178.922 53.6082 179.187C54.5724 179.287 55.4133 179.891 55.4079 180.852C55.4034 181.671 54.5712 182.596 53.5897 182.496C51.7473 182.297 50.0571 182.618 48.4842 183.523C46.5137 184.678 44.7035 181.801 46.674 180.661Z" fill="#ABD0EF"/>
<path d="M3.54329 88.6525C4.71582 88.4858 5.88834 88.319 7.06088 88.1522C6.74293 86.4644 6.70092 84.7309 6.96867 83.0622C7.03987 82.6529 7.1111 82.2436 7.21676 81.8345C6.66648 81.6424 6.13335 81.4661 5.58308 81.2739C4.63733 80.9377 3.72637 80.5387 3.42161 79.5759C3.15069 78.7235 3.49975 77.9218 3.86595 77.136C4.23216 76.3502 4.61543 75.596 5.10197 74.8582C5.95339 73.5708 7.25705 71.514 9.21834 72.0291C10.0958 72.2546 10.8154 72.9834 11.5017 73.4915C11.6562 73.6027 11.7934 73.7137 11.9478 73.8249C12.0691 73.7152 12.1731 73.6055 12.2943 73.4959C12.9349 72.9322 13.6097 72.416 14.4549 72.2474C15.2505 71.7004 16.1658 71.3273 17.1147 71.0962C17.1148 71.0805 17.1148 71.0805 17.1149 71.0647C17.2619 69.4111 17.495 67.7736 17.8143 66.1367C17.9737 65.3655 18.8199 65.0078 19.5612 64.9331C20.8197 64.7984 22.0601 64.821 23.317 64.9699C24.6083 65.1346 26.2614 65.3014 27.2386 66.1892C28.2157 67.0771 28.2252 68.4638 28.1669 69.6452C28.1088 70.7951 27.8956 71.9442 27.5449 73.0452C27.9056 73.2521 28.2662 73.4747 28.6094 73.7129C30.2685 72.8083 32.5814 72.0649 34.4222 72.5636C35.5232 72.8691 36.1213 73.7548 36.7024 74.5932C37.3006 75.4632 37.8987 76.3489 38.445 77.2501C38.9741 78.1512 39.4512 79.0993 39.8421 80.0626C40.216 80.9786 40.641 82.0209 40.2737 82.9958C39.8538 84.1437 38.5071 84.6404 37.3678 85.028C36.7636 85.2452 36.1253 85.3835 35.4872 85.4902C35.5643 87.1136 35.383 88.7356 34.9261 90.3402C36.731 91.0909 38.3274 92.1555 39.0062 94.0186C39.4302 95.2185 39.1653 96.383 38.6937 97.5306C38.1695 98.8513 37.6453 100.156 37.121 101.477C36.6317 102.719 35.1829 102.994 34.1019 102.185C32.4203 100.946 30.6867 99.7707 28.9183 98.6579C28.14 99.1893 27.2931 99.6573 26.4124 100.015C25.7562 100.279 25.0831 100.496 24.4103 100.634C24.457 101.532 24.4348 102.43 24.3265 103.312C24.2178 104.273 24.0917 105.249 23.2609 105.938C21.7895 107.158 18.9674 106.528 17.2817 106.03C15.4929 105.485 13.1888 104.637 13.1485 102.604C13.121 101.343 13.7658 100.039 14.5474 98.9086C13.3281 98.1928 12.2475 97.3359 11.3053 96.3537C10.5084 97.1371 9.38456 97.8399 8.36796 97.85C6.66229 97.8405 5.8968 96.0714 5.12773 94.9484C4.23895 93.6671 3.36738 92.3859 2.47859 91.1047C1.88041 90.2347 2.38798 88.8194 3.54329 88.6525ZM19.8959 88.334C21.1648 89.4284 23.0062 89.8168 24.5613 89.0219C26.4273 88.0711 26.318 86.0536 25.7759 84.3961C25.2 82.6124 23.6094 80.5078 21.2965 81.2512C20.9686 81.3597 20.6241 81.342 20.2972 81.2457C19.3641 81.7447 18.584 82.5912 18.2689 83.4876C17.6563 85.2017 18.507 87.1288 19.8959 88.334Z" fill="#ABD0EF"/>
<path d="M248.667 305.212C249.84 305.045 251.012 304.878 252.185 304.712C251.867 303.024 251.825 301.29 252.093 299.622C252.164 299.212 252.235 298.803 252.341 298.394C251.79 298.202 251.257 298.025 250.707 297.833C249.761 297.497 248.85 297.098 248.546 296.135C248.275 295.283 248.624 294.481 248.99 293.695C249.356 292.91 249.739 292.155 250.226 291.418C251.077 290.13 252.381 288.073 254.342 288.588C255.22 288.814 255.939 289.543 256.626 290.051C256.78 290.162 256.917 290.273 257.072 290.384C257.193 290.275 257.297 290.165 257.418 290.055C258.059 289.492 258.734 288.975 259.579 288.807C260.375 288.26 261.29 287.887 262.239 287.656C262.239 287.64 262.239 287.64 262.239 287.624C262.386 285.97 262.619 284.333 262.938 282.696C263.098 281.925 263.944 281.567 264.685 281.492C265.944 281.358 267.184 281.38 268.441 281.529C269.732 281.694 271.385 281.861 272.363 282.749C273.34 283.636 273.349 285.023 273.291 286.205C273.233 287.354 273.02 288.504 272.669 289.605C273.03 289.811 273.39 290.034 273.733 290.272C275.393 289.368 277.705 288.624 279.546 289.123C280.647 289.428 281.245 290.314 281.826 291.153C282.425 292.022 283.023 292.908 283.569 293.809C284.098 294.711 284.575 295.659 284.966 296.622C285.34 297.538 285.765 298.58 285.398 299.555C284.978 300.703 283.631 301.2 282.492 301.587C281.888 301.805 281.249 301.943 280.611 302.05C280.688 303.673 280.507 305.295 280.05 306.9C281.855 307.65 283.451 308.715 284.13 310.578C284.554 311.778 284.289 312.942 283.818 314.09C283.293 315.411 282.769 316.716 282.245 318.036C281.756 319.278 280.307 319.554 279.226 318.744C277.544 317.506 275.811 316.33 274.042 315.217C273.264 315.749 272.417 316.217 271.536 316.574C270.88 316.838 270.207 317.055 269.534 317.193C269.581 318.092 269.559 318.99 269.451 319.871C269.342 320.832 269.216 321.808 268.385 322.497C266.914 323.718 264.091 323.087 262.406 322.59C260.617 322.044 258.313 321.196 258.273 319.163C258.245 317.902 258.89 316.598 259.671 315.468C258.452 314.752 257.371 313.895 256.429 312.913C255.632 313.696 254.509 314.399 253.492 314.409C251.786 314.4 251.021 312.631 250.252 311.508C249.363 310.226 248.491 308.945 247.603 307.664C247.004 306.794 247.529 305.379 248.667 305.212ZM265.037 304.893C266.306 305.988 268.147 306.376 269.703 305.581C271.569 304.631 271.459 302.613 270.917 300.956C270.341 299.172 268.751 297.067 266.438 297.811C266.11 297.919 265.765 297.901 265.438 297.805C264.505 298.304 263.725 299.151 263.41 300.047C262.798 301.761 263.648 303.688 265.037 304.893Z" fill="#ABD0EF"/>
<path d="M293.262 273.442C296.554 270.057 299.864 266.688 303.156 263.303C303.814 262.629 305.054 262.715 305.706 263.317C306.426 263.983 306.351 264.991 305.693 265.649C302.4 269.034 299.091 272.403 295.798 275.788C295.14 276.462 293.9 276.376 293.249 275.774C292.529 275.108 292.603 274.116 293.262 273.442Z" fill="#ABD0EF"/>
<path d="M318.435 245.582C321.452 242.164 324.452 238.73 327.469 235.312C328.076 234.622 329.402 234.74 330.018 235.326C330.773 236.024 330.612 236.968 330.005 237.658C326.989 241.076 323.989 244.51 320.972 247.928C320.365 248.618 319.039 248.501 318.422 247.914C317.668 247.232 317.811 246.288 318.435 245.582Z" fill="#ABD0EF"/>
<path d="M294.761 251.942C298.165 247.171 302.323 242.877 307.133 239.264C307.894 238.701 308.963 238.597 309.683 239.278C310.317 239.865 310.431 241.047 309.67 241.61C305.085 245.051 301.1 249.078 297.853 253.614C296.603 255.403 293.476 253.731 294.761 251.942Z" fill="#ABD0EF"/>
<path d="M341.558 177.28C344.165 173.229 348.13 169.832 352.947 168.125C357.107 166.636 361.966 166.568 366.232 167.837C366.715 167.698 367.266 167.748 367.782 167.956C372.131 169.761 375.074 173.48 377.12 177.305C379.456 181.666 381.651 186.579 381.779 191.496C381.991 199.896 375.073 207.704 366.393 210.003C357.3 212.426 347.433 208.385 342.043 201.548C336.5 194.474 336.848 184.627 341.558 177.28ZM343.633 197.586C347.216 203.909 355.221 208.239 363.066 207.29C370.514 206.386 377.008 200.498 378.028 193.681C378.726 189.1 376.65 184.377 374.623 180.253C373.294 177.535 371.638 174.816 369.254 172.833C369.202 172.817 369.168 172.785 369.116 172.769C365.528 170.606 361.07 169.762 356.844 170.542C352.515 171.337 348.78 173.759 346.143 176.958C341.39 182.699 339.931 191.042 343.633 197.586Z" fill="#ABD0EF"/>
<path d="M347.615 188.201C347.678 186.074 351.296 186.094 351.233 188.221C351.129 191.324 352.076 194.56 354.666 196.685C357.084 198.668 360.578 199.176 363.378 197.616C369.099 194.434 370.519 186.863 367.153 181.802C365.308 179.019 362.287 177.033 358.845 176.273C356.574 175.772 357.557 172.594 359.828 173.095C363.837 173.984 367.288 176.241 369.666 179.295C372.146 182.46 373.003 186.389 372.378 190.214C371.737 194.102 369.407 197.776 365.897 200.073C362.214 202.479 357.338 202.42 353.595 200.114C349.337 197.475 347.468 192.769 347.615 188.201Z" fill="#ABD0EF"/>
</svg>
