<svg width="1341" height="341" viewBox="0 0 1341 341" fill="none" xmlns="http://www.w3.org/2000/svg">
<path d="M1318.16 0H31.0657C25.0265 0.00785921 19.2391 1.21676 14.9688 3.36243C10.6985 5.5081 8.2925 8.416 8.27686 11.4504V329.544C8.29248 332.579 10.6981 335.487 14.9681 337.634C19.2381 339.78 25.0254 340.991 31.0657 341H795.325H928.536C928.536 341 940.788 341 950.318 341H976.154H1318.22C1324.26 340.989 1330.05 339.778 1334.31 337.632C1338.58 335.485 1340.98 332.578 1341 329.544V11.4504C1340.98 8.41188 1338.57 5.50039 1334.29 3.35404C1330.01 1.20769 1324.21 0.0015658 1318.16 0Z" fill="#9AB9EF"/>
<ellipse cx="130.426" cy="117.5" rx="59.775" ry="57.5" fill="white"/>
<path d="M93.8221 159.594C95.6398 135.665 92.9536 113.079 92.9536 113.079L96.6349 111.747C96.6349 111.747 102.855 135.784 102.834 160.148C102.834 160.148 102.682 163.064 98.1327 163.075C93.8397 163.075 93.808 159.84 93.808 159.84C93.8221 159.759 93.8221 159.678 93.8221 159.594Z" fill="#FFB680"/>
<path d="M88.7845 112.298C87.6875 111.642 84.4668 109.354 85.0118 108.516C86.2987 106.536 87.4308 108.773 90.5003 108.733C92.4833 108.706 93.8616 113.718 93.8616 113.718C93.8616 113.718 91.0664 113.667 88.7845 112.298Z" fill="#FFB680"/>
<path d="M93.8617 113.718C88.5666 113.549 87.1145 109.284 86.6644 103.579C86.4429 100.818 96.0276 100.875 97.339 103.339C100.321 108.959 97.7609 113.843 93.8617 113.718Z" fill="#FFB680"/>
<path style="mix-blend-mode:multiply" d="M175.647 119.034C175.646 110.324 172.958 101.81 167.924 94.5687C162.889 87.3272 155.734 81.6833 147.362 78.3509C138.99 75.0184 129.779 74.147 120.892 75.8468C112.005 77.5467 103.842 81.7414 97.4356 87.9006C91.0289 94.0598 86.6662 101.907 84.8992 110.449C83.1321 118.992 84.0401 127.846 87.5082 135.893C90.9764 143.939 96.849 150.817 104.383 155.655C111.918 160.493 120.776 163.075 129.837 163.075C135.853 163.074 141.81 161.935 147.368 159.721C152.927 157.508 157.977 154.264 162.231 150.174C166.485 146.085 169.859 141.23 172.161 135.887C174.463 130.544 175.647 124.817 175.647 119.034Z" fill="url(#paint0_radial_39_117)"/>
<path d="M165.781 119.027C165.78 112.193 163.671 105.513 159.721 99.8312C155.771 94.1494 150.156 89.721 143.588 87.1061C137.019 84.4913 129.792 83.8073 122.819 85.1406C115.846 86.474 109.441 89.7649 104.414 94.5971C99.3869 99.4294 95.9633 105.586 94.5762 112.288C93.189 118.991 93.9006 125.938 96.621 132.252C99.3413 138.566 103.948 143.963 109.859 147.76C115.77 151.557 122.72 153.584 129.829 153.584C134.551 153.585 139.226 152.691 143.588 150.955C147.95 149.218 151.913 146.673 155.252 143.464C158.59 140.255 161.238 136.445 163.045 132.252C164.851 128.059 165.781 123.565 165.781 119.027V119.027Z" fill="#84A1EF"/>
<path d="M119.694 110.466C119.694 109.615 119.431 108.784 118.94 108.076C118.448 107.369 117.749 106.817 116.931 106.492C116.113 106.166 115.213 106.081 114.345 106.247C113.477 106.413 112.679 106.822 112.053 107.424C111.427 108.026 111.001 108.792 110.828 109.627C110.655 110.462 110.744 111.327 111.083 112.113C111.422 112.899 111.995 113.571 112.731 114.044C113.467 114.516 114.333 114.769 115.218 114.769C116.405 114.769 117.544 114.315 118.383 113.509C119.222 112.702 119.694 111.607 119.694 110.466Z" fill="#2E5FB7"/>
<path d="M148.925 110.466C148.927 109.613 148.665 108.779 148.172 108.069C147.68 107.36 146.98 106.806 146.16 106.48C145.341 106.153 144.439 106.067 143.568 106.233C142.698 106.4 141.898 106.81 141.271 107.414C140.644 108.017 140.217 108.786 140.045 109.623C139.872 110.459 139.962 111.327 140.303 112.114C140.644 112.902 141.22 113.574 141.959 114.047C142.698 114.52 143.566 114.771 144.453 114.769C145.639 114.767 146.776 114.313 147.615 113.506C148.453 112.7 148.924 111.607 148.925 110.466V110.466Z" fill="#2E5FB7"/>
<path d="M129.829 139.778C123.339 139.778 116.321 136.23 115.452 129.45C115.43 129.282 115.443 129.112 115.49 128.948C115.537 128.785 115.617 128.632 115.725 128.499C115.833 128.365 115.968 128.254 116.121 128.17C116.274 128.087 116.443 128.033 116.618 128.012C116.971 127.97 117.327 128.064 117.607 128.274C117.746 128.378 117.862 128.508 117.949 128.655C118.036 128.802 118.092 128.964 118.114 129.132C118.789 134.367 124.65 137.196 129.829 137.196C135.008 137.196 140.873 134.367 141.544 129.132C141.566 128.964 141.622 128.802 141.709 128.655C141.796 128.508 141.912 128.378 142.051 128.274C142.19 128.17 142.349 128.094 142.519 128.048C142.688 128.003 142.866 127.991 143.04 128.012C143.215 128.033 143.384 128.087 143.537 128.17C143.69 128.254 143.825 128.365 143.933 128.499C144.041 128.632 144.121 128.785 144.168 128.948C144.215 129.112 144.228 129.282 144.206 129.45C143.348 136.223 136.32 139.778 129.829 139.778Z" fill="#E9E9EA"/>
<path d="M162.652 112.673C162.455 111.734 162.209 110.791 161.924 109.872C161.681 109.17 161.163 108.587 160.48 108.246C159.798 107.905 159.004 107.832 158.266 108.043C157.529 108.254 156.906 108.732 156.529 109.377C156.152 110.022 156.05 110.782 156.246 111.497C156.478 112.251 156.678 113.028 156.84 113.799C156.975 114.443 157.338 115.022 157.867 115.438C158.395 115.855 159.057 116.083 159.741 116.084C159.939 116.084 160.137 116.066 160.331 116.029C161.102 115.879 161.779 115.442 162.214 114.813C162.649 114.184 162.806 113.414 162.652 112.673V112.673Z" fill="url(#paint1_linear_39_117)"/>
<path d="M156.759 99.9252C152.438 94.3246 146.355 90.2112 139.411 88.1943C139.036 88.0787 138.641 88.0362 138.248 88.0693C137.855 88.1024 137.474 88.2104 137.125 88.387C136.776 88.5636 136.468 88.8053 136.218 89.0979C135.967 89.3905 135.78 89.7282 135.667 90.0911C135.554 90.454 135.518 90.835 135.56 91.2116C135.602 91.5883 135.722 91.9531 135.912 92.2847C136.103 92.6163 136.36 92.9081 136.669 93.143C136.979 93.3778 137.334 93.551 137.713 93.6525C143.431 95.3135 148.439 98.7019 151.995 103.315C152.218 103.636 152.506 103.91 152.842 104.121C153.178 104.332 153.555 104.475 153.95 104.542C154.345 104.608 154.75 104.597 155.141 104.509C155.531 104.42 155.899 104.257 156.222 104.028C156.545 103.799 156.816 103.509 157.019 103.176C157.222 102.844 157.352 102.475 157.403 102.092C157.453 101.71 157.422 101.321 157.311 100.95C157.201 100.58 157.013 100.234 156.759 99.9353V99.9252Z" fill="url(#paint2_linear_39_117)"/>
<path d="M40.3021 110.52C28.2175 109.797 17.4656 119.984 22.5638 133.675C23.2864 135.516 24.4275 137.178 25.904 138.541C25.4173 138.606 24.9349 138.698 24.4589 138.815C21.3191 139.64 16.678 142.093 11.3794 148.91C6.1546 155.859 5.75377 162.476 6.49565 166.823C7.27269 171.27 9.22759 173.467 9.1854 173.525C9.24517 173.612 8.27475 172.991 3.42618 179.446C-0.947737 185.316 1.1478 195.209 5.31779 197.628C3.68285 198.585 2.33973 200.714 2.55772 203.553C2.95503 208.68 8.50681 214.169 10.1628 214.132C11.8189 214.094 13.4433 208.048 13.1057 202.979C12.8878 199.683 11.0383 198.247 9.45261 197.598C13.6085 195.499 16.446 188.044 15.3243 182.305C14.0058 175.312 13.5663 174.93 13.4609 174.968C13.7246 174.893 24.1671 172.264 30.7842 162.5C36.1602 155.352 35.8719 147.89 33.5232 143.158C41.937 146.305 52.3796 145.331 55.5826 137.196C59.2604 127.865 51.6799 111.2 40.3021 110.52Z" fill="#3E3C9B"/>
<path d="M23.9385 137.602C23.9385 137.602 30.6435 143.057 34.8627 144.578" stroke="#5E85DD" stroke-width="7" stroke-linecap="round" stroke-linejoin="round"/>
<path d="M8.20459 173.342C8.20459 173.342 11.6116 175.221 14.5334 175.495" stroke="#5E85DD" stroke-width="7" stroke-linecap="round" stroke-linejoin="round"/>
<path d="M3.71484 197.713C3.71484 197.713 8.98886 197.936 11.7454 197.598" stroke="#5E85DD" stroke-width="7" stroke-linecap="round" stroke-linejoin="round"/>
<path d="M52.5555 150.225C67.6869 153.075 83.0661 154.535 98.4852 154.585C98.4852 154.585 102.571 154.774 102.704 158.864C102.849 163.2 98.8368 163.257 98.8368 163.257C98.7418 163.257 98.6504 163.257 98.5555 163.277C75.2022 164.9 53.0197 160.912 50.0557 157.231C47.0917 153.551 49.0677 149.938 52.5555 150.225Z" fill="#FFB680"/>
<path d="M76.4853 150.37L76.7279 166.755C76.7279 166.755 56.887 166.356 48.7545 163.125C40.622 159.894 43.3785 144.138 53.6066 146.176C66.4892 148.748 76.4853 150.37 76.4853 150.37Z" fill="#FECD6C"/>
<path d="M64.5585 203.256C55.9267 197.395 46.0714 205.452 47.1297 215.085C47.6536 219.86 49.0529 225.676 51.9958 228.36C57.9731 233.811 77.3392 245.887 92.9222 255.421C94.5817 256.435 99.6659 258.486 104.817 255.759C109.848 253.086 108.684 246.296 107.232 244.724C95.5592 231.993 64.5585 203.256 64.5585 203.256Z" fill="#2E5FB7"/>
<path d="M60.2832 199.417C57.6462 189.578 44.7108 189.588 39.0219 197.602C36.2091 201.569 33.3506 206.876 33.7901 210.752C34.6832 218.63 41.3073 239.882 46.7677 256.841C47.3513 258.649 49.8442 263.37 55.614 264.492C61.2396 265.587 64.9243 259.697 64.8857 257.584C64.5657 240.608 60.2832 199.417 60.2832 199.417Z" fill="#5E85DD"/>
<path d="M35.7699 155.416C35.7699 167.336 35.6293 190.366 31.7617 211.827C30.735 217.535 50.7481 221.128 61.929 216.984C67.6671 214.855 73.2365 211.708 73.0115 209.275C71.0073 187.476 65.3677 159.989 54.9321 147.947C50.2242 142.523 35.7699 146.386 35.7699 155.416Z" fill="#FECD6C"/>
<path d="M73.1978 322.822C73.1978 322.822 70.9792 327.148 75.5149 329.071C80.0505 330.994 93.1863 335.739 94.7017 333.262C95.8269 331.413 88.7245 326.962 84.0271 324.411C79.3297 321.859 74.5269 319.402 73.1978 322.822Z" fill="#3E3C9B"/>
<path d="M74.3896 324.174C76.2602 324.989 91.0239 331.376 91.3298 330.291C91.7025 328.98 77.9514 322.366 77.0372 321.906L74.3896 324.174Z" fill="#FFB680"/>
<path d="M80.6874 324.509C83.3842 315.519 86.9248 299.766 87.0549 299.161L82.4314 298.255C82.3962 298.401 78.402 315.11 75.751 323.941L80.6874 324.509Z" fill="#FFB680"/>
<path d="M105.548 258.497C106.736 255.499 107.218 254.583 108.318 251.399C109.475 248.06 106.318 242.338 98.7127 243.531C93.6883 244.319 91.6209 249.479 91.3783 250.831C89.1737 263.204 78.239 296.971 80.0638 299.861C81.8886 302.75 89.346 304.122 89.8734 303.321C90.4008 302.52 96.2831 281.914 105.548 258.497Z" fill="#2E5FB7"/>
<path d="M53.9938 332.829C53.9938 332.829 53.2484 337.602 58.1779 338.105C63.1073 338.609 77.1256 339.281 77.7796 336.48C78.2683 334.388 70.0936 332.228 64.809 331.17C59.5245 330.112 54.1731 329.183 53.9938 332.829Z" fill="#3E3C9B"/>
<path d="M55.5547 333.772C57.594 333.999 73.6797 335.763 73.627 334.641C73.5672 333.289 58.3745 331.008 57.3549 330.835L55.5547 333.772Z" fill="#FFB680"/>
<path d="M61.6581 332.245C61.3769 322.893 59.763 306.85 59.6962 306.248L55.0059 306.735C55.0059 306.883 56.5072 323.971 56.785 333.144L61.6581 332.245Z" fill="#FFB680"/>
<path d="M64.4213 262.089C64.6041 258.885 64.7729 257.872 64.8151 254.522C64.8573 251.007 60.0368 246.479 53.1736 249.841C48.6379 252.065 48.3039 257.584 48.5008 258.943C50.3221 271.373 50.6104 306.738 53.258 308.962C55.9055 311.186 63.4544 310.314 63.697 309.388C63.9396 308.462 63.0219 287.106 64.4213 262.089Z" fill="#5E85DD"/>
<path d="M50.5021 122.856C51.8241 126.368 55.3401 134.601 53.7157 137.467C51.6412 141.117 45.6922 140.306 45.6922 140.306C45.6922 140.306 47.5908 145.26 48.0373 146.146C48.4839 147.031 57.0278 152.489 50.8009 154.967C44.6479 157.417 39.9751 149.042 39.9751 149.042L35.1547 132.049C35.1547 132.049 30.9917 130.238 31.8356 127.074C32.6794 123.911 36.9619 127.29 36.9619 127.29C36.9619 127.29 36.1497 124.996 35.3797 123.346C34.6554 121.795 35.1758 120.612 36.7545 120.96C39.8767 121.636 45.0769 122.556 48.3573 121.829C48.9058 121.711 49.9219 121.315 50.5021 122.856Z" fill="#FFB680"/>
<path d="M44.011 160.665C58.187 166.503 72.9094 171.03 87.9787 174.184C87.9787 174.184 91.9307 175.198 91.1747 179.219C90.3696 183.471 86.4387 182.721 86.4387 182.721C86.3437 182.721 86.2523 182.701 86.1574 182.687C62.9623 179.574 42.137 171.21 40.0274 167.019C37.9178 162.828 40.6638 159.681 44.011 160.665Z" fill="#FFB680"/>
<path d="M67.3787 165.623L64.0491 181.687C64.0491 181.687 48.8001 178.719 40.4918 174.184C32.848 170.006 39.11 154.183 44.2047 156.626C51.6895 160.167 59.4351 163.174 67.3787 165.623V165.623Z" fill="#FECD6C"/>
<path d="M63.0999 162.486C58.9897 161.574 51.2861 159.766 47.981 158.363C54.3802 161.206 60.2871 163.311 63.8734 164.504C63.6202 163.821 63.3624 163.149 63.0999 162.486ZM68.1981 179.196C67.0308 178.898 65.8775 178.597 64.7559 178.286L64.0527 181.69C64.0527 181.69 48.8038 178.722 40.4955 174.187C40.3548 174.109 40.2142 174.025 40.0806 173.94C49.7988 182.116 64.879 185.022 64.879 185.022L65.9338 179.841L68.4759 180.422C68.395 180.013 68.2965 179.605 68.1981 179.196Z" fill="#EDAB37"/>
<path d="M85.458 174.565C108.727 165.89 128.807 153.875 128.807 153.875L131.637 156.498C131.637 156.498 111.709 172.2 88.7982 182.626C88.7982 182.626 85.9854 183.741 84.0341 179.794C82.1881 176.076 85.2225 174.657 85.2225 174.657L85.458 174.565Z" fill="#FFB680"/>
<path d="M127.755 149.918C127.899 148.687 128.669 144.909 129.688 145.02C132.104 145.291 130.486 147.234 131.84 149.884C132.716 151.594 128.595 154.953 128.595 154.953C128.595 154.953 127.445 152.486 127.755 149.918Z" fill="#FFB680"/>
<path d="M128.596 154.936C126.487 150.266 129.872 147.163 135.034 144.344C137.534 142.972 141.591 151.317 139.833 153.514C135.836 158.509 130.15 158.367 128.596 154.936Z" fill="#FFB680"/>
<defs>
<radialGradient id="paint0_radial_39_117" cx="0" cy="0" r="1" gradientUnits="userSpaceOnUse" gradientTransform="translate(129.833 119.031) scale(42.7125 41.0564)">
<stop stop-color="#AFAFAF"/>
<stop offset="0.05" stop-color="#B5B5B5"/>
<stop offset="0.47" stop-color="#DDDDDD"/>
<stop offset="0.8" stop-color="#F6F6F6"/>
<stop offset="1" stop-color="white"/>
</radialGradient>
<linearGradient id="paint1_linear_39_117" x1="159.414" y1="88.1944" x2="159.414" y2="115.779" gradientUnits="userSpaceOnUse">
<stop stop-color="white"/>
<stop offset="1" stop-color="white"/>
</linearGradient>
<linearGradient id="paint2_linear_39_117" x1="146.465" y1="88.1943" x2="146.465" y2="115.779" gradientUnits="userSpaceOnUse">
<stop stop-color="white"/>
<stop offset="1" stop-color="white"/>
</linearGradient>
</defs>
</svg>
