<svg width="101" height="21" viewBox="0 0 101 21" fill="none" xmlns="http://www.w3.org/2000/svg">
<path d="M16.8977 5.55398L12.679 6.0142C12.5597 5.58807 12.3509 5.1875 12.0526 4.8125C11.7628 4.4375 11.3707 4.13494 10.8764 3.90483C10.3821 3.67472 9.77699 3.55966 9.06108 3.55966C8.09801 3.55966 7.28835 3.76847 6.6321 4.18608C5.98438 4.60369 5.66477 5.14489 5.6733 5.80966C5.66477 6.38068 5.87358 6.84517 6.29972 7.20312C6.73438 7.56108 7.45028 7.85511 8.44744 8.08523L11.7969 8.80114C13.6548 9.2017 15.0355 9.83665 15.9389 10.706C16.8509 11.5753 17.3111 12.7131 17.3196 14.1193C17.3111 15.3551 16.9489 16.446 16.233 17.392C15.5256 18.3295 14.5412 19.0625 13.2798 19.5909C12.0185 20.1193 10.5696 20.3835 8.93324 20.3835C6.52983 20.3835 4.59517 19.8807 3.12926 18.875C1.66335 17.8608 0.789773 16.4503 0.508523 14.6435L5.02131 14.2088C5.22585 15.0952 5.66051 15.7642 6.32528 16.2159C6.99006 16.6676 7.85511 16.8935 8.92045 16.8935C10.0199 16.8935 10.902 16.6676 11.5668 16.2159C12.2401 15.7642 12.5767 15.206 12.5767 14.5412C12.5767 13.9787 12.3594 13.5142 11.9247 13.1477C11.4986 12.7812 10.8338 12.5 9.9304 12.304L6.58097 11.6009C4.69744 11.2088 3.30398 10.5483 2.40057 9.61932C1.49716 8.68182 1.04972 7.49716 1.05824 6.06534C1.04972 4.85511 1.37784 3.80682 2.04261 2.92045C2.71591 2.02557 3.64915 1.33523 4.84233 0.849431C6.04403 0.355114 7.42898 0.107955 8.99716 0.107955C11.2983 0.107955 13.1094 0.598011 14.4304 1.57812C15.7599 2.55824 16.5824 3.88352 16.8977 5.55398ZM29.8288 20.3835C27.8601 20.3835 26.1598 19.9744 24.728 19.1562C23.3047 18.3295 22.2095 17.1619 21.4425 15.6534C20.6754 14.1364 20.2919 12.3509 20.2919 10.2969C20.2919 8.27699 20.6754 6.50426 21.4425 4.97869C22.218 3.4446 23.3004 2.25142 24.6896 1.39915C26.0788 0.538352 27.7109 0.107955 29.5859 0.107955C30.7962 0.107955 31.9382 0.303977 33.0121 0.696022C34.0945 1.07954 35.049 1.67614 35.8757 2.4858C36.7109 3.29545 37.3672 4.3267 37.8445 5.57955C38.3217 6.82386 38.5604 8.30682 38.5604 10.0284V11.4474H22.4652V8.32812H34.1243C34.1158 7.44176 33.924 6.65341 33.549 5.96307C33.174 5.2642 32.6499 4.71449 31.9766 4.31392C31.3118 3.91335 30.5362 3.71307 29.6499 3.71307C28.7038 3.71307 27.8729 3.94318 27.157 4.40341C26.4411 4.85511 25.8828 5.4517 25.4822 6.19318C25.0902 6.92614 24.8899 7.73153 24.8814 8.60938V11.3324C24.8814 12.4744 25.0902 13.4545 25.5078 14.2727C25.9254 15.0824 26.5092 15.7045 27.2592 16.1392C28.0092 16.5653 28.8871 16.7784 29.8928 16.7784C30.5661 16.7784 31.1754 16.6847 31.7209 16.4972C32.2663 16.3011 32.7393 16.0156 33.1399 15.6406C33.5405 15.2656 33.843 14.8011 34.0476 14.2472L38.3686 14.733C38.0959 15.875 37.576 16.8722 36.809 17.7244C36.0504 18.5682 35.0788 19.2244 33.8942 19.6932C32.7095 20.1534 31.3544 20.3835 29.8288 20.3835ZM47.1033 8.49432V20H42.4755V0.363636H46.8988V3.70028H47.1289C47.5806 2.60085 48.3008 1.72727 49.2894 1.07955C50.2866 0.431818 51.5181 0.107955 52.984 0.107955C54.3391 0.107955 55.5195 0.397727 56.5252 0.977272C57.5394 1.55682 58.3235 2.39631 58.8775 3.49574C59.44 4.59517 59.717 5.92898 59.7085 7.49716V20H55.0806V8.21307C55.0806 6.90057 54.7397 5.87358 54.0579 5.1321C53.3846 4.39062 52.4513 4.01989 51.2582 4.01989C50.4485 4.01989 49.7283 4.19886 49.0977 4.55682C48.4755 4.90625 47.9854 5.41335 47.6275 6.07812C47.2781 6.7429 47.1033 7.54829 47.1033 8.49432Z" fill="#00B4D8"/>
<path d="M79.9329 5.55398L75.7141 6.0142C75.5948 5.58807 75.386 5.1875 75.0877 4.8125C74.7979 4.4375 74.4059 4.13494 73.9116 3.90483C73.4173 3.67472 72.8121 3.55966 72.0962 3.55966C71.1332 3.55966 70.3235 3.76847 69.6673 4.18608C69.0195 4.60369 68.6999 5.14489 68.7085 5.80966C68.6999 6.38068 68.9087 6.84517 69.3349 7.20312C69.7695 7.56108 70.4854 7.85511 71.4826 8.08523L74.832 8.80114C76.69 9.2017 78.0707 9.83665 78.9741 10.706C79.886 11.5753 80.3462 12.7131 80.3548 14.1193C80.3462 15.3551 79.984 16.446 79.2681 17.392C78.5607 18.3295 77.5763 19.0625 76.315 19.5909C75.0536 20.1193 73.6048 20.3835 71.9684 20.3835C69.565 20.3835 67.6303 19.8807 66.1644 18.875C64.6985 17.8608 63.8249 16.4503 63.5437 14.6435L68.0565 14.2088C68.261 15.0952 68.6957 15.7642 69.3604 16.2159C70.0252 16.6676 70.8903 16.8935 71.9556 16.8935C73.055 16.8935 73.9371 16.6676 74.6019 16.2159C75.2752 15.7642 75.6119 15.206 75.6119 14.5412C75.6119 13.9787 75.3945 13.5142 74.9599 13.1477C74.5337 12.7812 73.869 12.5 72.9656 12.304L69.6161 11.6009C67.7326 11.2088 66.3391 10.5483 65.4357 9.61932C64.5323 8.68182 64.0849 7.49716 64.0934 6.06534C64.0849 4.85511 64.413 3.80682 65.0778 2.92045C65.7511 2.02557 66.6843 1.33523 67.8775 0.849431C69.0792 0.355114 70.4641 0.107955 72.0323 0.107955C74.3335 0.107955 76.1445 0.598011 77.4656 1.57812C78.7951 2.55824 79.6175 3.88352 79.9329 5.55398ZM89.8214 20.3963C88.5771 20.3963 87.4563 20.1747 86.4592 19.7315C85.4705 19.2798 84.6864 18.6151 84.1069 17.7372C83.5359 16.8594 83.2504 15.777 83.2504 14.4901C83.2504 13.3821 83.4549 12.4659 83.864 11.7415C84.2731 11.017 84.8313 10.4375 85.5387 10.0028C86.2461 9.56818 87.043 9.24006 87.9293 9.01847C88.8242 8.78835 89.7489 8.62216 90.7035 8.51989C91.854 8.40057 92.7873 8.29403 93.5032 8.20028C94.2191 8.09801 94.739 7.9446 95.0629 7.74006C95.3952 7.52699 95.5614 7.19886 95.5614 6.75568V6.67898C95.5614 5.71591 95.2759 4.97017 94.7049 4.44176C94.1339 3.91335 93.3114 3.64915 92.2376 3.64915C91.104 3.64915 90.2049 3.89631 89.5401 4.39062C88.8839 4.88494 88.4407 5.46875 88.2106 6.14205L83.8896 5.52841C84.2305 4.33523 84.793 3.33807 85.5771 2.53693C86.3612 1.72727 87.32 1.12216 88.4535 0.721591C89.587 0.3125 90.8398 0.107955 92.212 0.107955C93.158 0.107955 94.0998 0.21875 95.0373 0.440341C95.9748 0.661931 96.8313 1.02841 97.6069 1.53977C98.3825 2.04261 99.0046 2.72869 99.4734 3.59801C99.9506 4.46733 100.189 5.55398 100.189 6.85795V20H95.7404V17.3026H95.587C95.3058 17.848 94.9094 18.3594 94.3981 18.8366C93.8952 19.3054 93.2603 19.6847 92.4933 19.9744C91.7347 20.2557 90.8441 20.3963 89.8214 20.3963ZM91.0231 16.9957C91.9521 16.9957 92.7575 16.8125 93.4393 16.446C94.1211 16.071 94.6452 15.5767 95.0117 14.9631C95.3867 14.3494 95.5742 13.6804 95.5742 12.956V10.642C95.4293 10.7614 95.1822 10.8722 94.8327 10.9744C94.4918 11.0767 94.1083 11.1662 93.6822 11.2429C93.256 11.3196 92.8342 11.3878 92.4165 11.4474C91.9989 11.5071 91.6367 11.5582 91.3299 11.6009C90.6396 11.6946 90.0217 11.848 89.4762 12.0611C88.9308 12.2741 88.5004 12.5724 88.185 12.956C87.8697 13.331 87.712 13.8168 87.712 14.4134C87.712 15.2656 88.0231 15.9091 88.6452 16.3438C89.2674 16.7784 90.06 16.9957 91.0231 16.9957Z" fill="#FF6D00"/>
</svg>
