<svg width="167" height="35" viewBox="0 0 167 35" fill="none" xmlns="http://www.w3.org/2000/svg">
<path d="M27.8295 9.9233L20.7983 10.6903C20.5994 9.98011 20.2514 9.3125 19.7543 8.6875C19.2713 8.0625 18.6179 7.55824 17.794 7.17471C16.9702 6.79119 15.9616 6.59943 14.7685 6.59943C13.1634 6.59943 11.8139 6.94744 10.7202 7.64346C9.64062 8.33949 9.10795 9.24148 9.12216 10.3494C9.10795 11.3011 9.45597 12.0753 10.1662 12.6719C10.8906 13.2685 12.0838 13.7585 13.7457 14.142L19.3281 15.3352C22.4247 16.0028 24.7259 17.0611 26.2315 18.5099C27.7514 19.9588 28.5185 21.8551 28.5327 24.1989C28.5185 26.2585 27.9148 28.0767 26.7216 29.6534C25.5426 31.2159 23.902 32.4375 21.7997 33.3182C19.6974 34.1989 17.2827 34.6392 14.5554 34.6392C10.5497 34.6392 7.32528 33.8011 4.8821 32.125C2.43892 30.4347 0.982955 28.0838 0.514205 25.0724L8.03551 24.348C8.37642 25.8253 9.10085 26.9403 10.2088 27.6932C11.3168 28.446 12.7585 28.8224 14.5341 28.8224C16.3665 28.8224 17.8366 28.446 18.9446 27.6932C20.0668 26.9403 20.6278 26.0099 20.6278 24.902C20.6278 23.9645 20.2656 23.1903 19.5412 22.5795C18.831 21.9687 17.723 21.5 16.2173 21.1733L10.6349 20.0014C7.49574 19.348 5.1733 18.2472 3.66761 16.6989C2.16193 15.1364 1.41619 13.1619 1.4304 10.7756C1.41619 8.75852 1.96307 7.01136 3.07102 5.53409C4.19318 4.04261 5.74858 2.89205 7.73722 2.08239C9.74006 1.25852 12.0483 0.846591 14.6619 0.846591C18.4972 0.846591 21.5156 1.66335 23.7173 3.29688C25.9332 4.9304 27.304 7.1392 27.8295 9.9233ZM49.3814 34.6392C46.1001 34.6392 43.2663 33.9574 40.88 32.5938C38.5078 31.2159 36.6825 29.2699 35.4041 26.7557C34.1257 24.2273 33.4865 21.2514 33.4865 17.8281C33.4865 14.4616 34.1257 11.5071 35.4041 8.96449C36.6967 6.40767 38.5007 4.41903 40.8161 2.99858C43.1314 1.56392 45.8516 0.846591 48.9766 0.846591C50.9936 0.846591 52.897 1.1733 54.6868 1.8267C56.4908 2.46591 58.0817 3.46023 59.4595 4.80966C60.8516 6.15909 61.9453 7.87784 62.7408 9.96591C63.5362 12.0398 63.934 14.5114 63.934 17.3807V19.7457H37.1087V14.5469H56.5405C56.5263 13.0696 56.2067 11.7557 55.5817 10.6051C54.9567 9.44034 54.0831 8.52415 52.9609 7.85653C51.853 7.18892 50.5604 6.85511 49.0831 6.85511C47.5064 6.85511 46.1214 7.23864 44.9283 8.00568C43.7351 8.75852 42.8047 9.75284 42.1371 10.9886C41.4837 12.2102 41.1499 13.5526 41.1357 15.0156V19.554C41.1357 21.4574 41.4837 23.0909 42.1797 24.4545C42.8757 25.804 43.8487 26.8409 45.0987 27.5653C46.3487 28.2756 47.8118 28.6307 49.4879 28.6307C50.6101 28.6307 51.6257 28.4744 52.5348 28.1619C53.4439 27.8352 54.2322 27.3594 54.8999 26.7344C55.5675 26.1094 56.0717 25.3352 56.4126 24.4119L63.6143 25.2216C63.1598 27.125 62.2933 28.7869 61.0149 30.2074C59.7507 31.6136 58.1314 32.7074 56.157 33.4886C54.1825 34.2557 51.924 34.6392 49.3814 34.6392ZM78.1722 14.8239V34H70.4592V1.27273H77.8313V6.83381H78.2148C78.9677 5.00142 80.168 3.54545 81.8157 2.46591C83.4776 1.38636 85.5302 0.846591 87.9734 0.846591C90.2319 0.846591 92.1992 1.32955 93.8754 2.29545C95.5657 3.26136 96.8725 4.66051 97.7958 6.4929C98.7333 8.32528 99.195 10.5483 99.1808 13.1619V34H91.4677V14.3551C91.4677 12.1676 90.8995 10.456 89.7631 9.22017C88.641 7.98437 87.0856 7.36648 85.0969 7.36648C83.7475 7.36648 82.5472 7.66477 81.4961 8.26136C80.4592 8.84375 79.6424 9.68892 79.0458 10.7969C78.4634 11.9048 78.1722 13.2472 78.1722 14.8239Z" fill="#00B4D8"/>
<path d="M132.888 9.9233L125.857 10.6903C125.658 9.98011 125.31 9.3125 124.813 8.6875C124.33 8.0625 123.676 7.55824 122.853 7.17471C122.029 6.79119 121.02 6.59943 119.827 6.59943C118.222 6.59943 116.873 6.94744 115.779 7.64346C114.699 8.33949 114.167 9.24148 114.181 10.3494C114.167 11.3011 114.515 12.0753 115.225 12.6719C115.949 13.2685 117.142 13.7585 118.804 14.142L124.387 15.3352C127.483 16.0028 129.784 17.0611 131.29 18.5099C132.81 19.9588 133.577 21.8551 133.591 24.1989C133.577 26.2585 132.973 28.0767 131.78 29.6534C130.601 31.2159 128.961 32.4375 126.858 33.3182C124.756 34.1989 122.341 34.6392 119.614 34.6392C115.608 34.6392 112.384 33.8011 109.941 32.125C107.498 30.4347 106.042 28.0838 105.573 25.0724L113.094 24.348C113.435 25.8253 114.159 26.9403 115.267 27.6932C116.375 28.446 117.817 28.8224 119.593 28.8224C121.425 28.8224 122.895 28.446 124.003 27.6932C125.125 26.9403 125.686 26.0099 125.686 24.902C125.686 23.9645 125.324 23.1903 124.6 22.5795C123.89 21.9687 122.782 21.5 121.276 21.1733L115.694 20.0014C112.554 19.348 110.232 18.2472 108.726 16.6989C107.221 15.1364 106.475 13.1619 106.489 10.7756C106.475 8.75852 107.022 7.01136 108.13 5.53409C109.252 4.04261 110.807 2.89205 112.796 2.08239C114.799 1.25852 117.107 0.846591 119.721 0.846591C123.556 0.846591 126.574 1.66335 128.776 3.29688C130.992 4.9304 132.363 7.1392 132.888 9.9233ZM149.369 34.6605C147.295 34.6605 145.427 34.2912 143.765 33.5526C142.118 32.7997 140.811 31.6918 139.845 30.2287C138.893 28.7656 138.417 26.9616 138.417 24.8168C138.417 22.9702 138.758 21.4432 139.44 20.2358C140.122 19.0284 141.052 18.0625 142.231 17.3381C143.41 16.6136 144.738 16.0668 146.216 15.6974C147.707 15.3139 149.248 15.0369 150.839 14.8665C152.757 14.6676 154.312 14.4901 155.505 14.3338C156.699 14.1634 157.565 13.9077 158.105 13.5668C158.659 13.2116 158.936 12.6648 158.936 11.9261V11.7983C158.936 10.1932 158.46 8.95028 157.508 8.0696C156.556 7.18892 155.186 6.74858 153.396 6.74858C151.507 6.74858 150.008 7.16051 148.9 7.98438C147.806 8.80824 147.068 9.78125 146.684 10.9034L139.483 9.88068C140.051 7.89204 140.988 6.23011 142.295 4.89489C143.602 3.54545 145.2 2.53693 147.089 1.86932C148.978 1.1875 151.066 0.846591 153.353 0.846591C154.93 0.846591 156.5 1.03125 158.062 1.40057C159.625 1.76989 161.052 2.38068 162.345 3.23295C163.637 4.07102 164.674 5.21449 165.456 6.66335C166.251 8.11222 166.649 9.92329 166.649 12.0966V34H159.234V29.5043H158.978C158.51 30.4134 157.849 31.2656 156.997 32.0611C156.159 32.8423 155.1 33.4744 153.822 33.9574C152.558 34.4261 151.074 34.6605 149.369 34.6605ZM151.372 28.9929C152.92 28.9929 154.262 28.6875 155.399 28.0767C156.535 27.4517 157.409 26.6278 158.02 25.6051C158.645 24.5824 158.957 23.4673 158.957 22.2599V18.4034C158.716 18.6023 158.304 18.7869 157.721 18.9574C157.153 19.1278 156.514 19.277 155.804 19.4048C155.093 19.5327 154.39 19.6463 153.694 19.7457C152.998 19.8452 152.395 19.9304 151.883 20.0014C150.733 20.1577 149.703 20.4134 148.794 20.7685C147.885 21.1236 147.167 21.6207 146.642 22.2599C146.116 22.8849 145.853 23.6946 145.853 24.6889C145.853 26.1094 146.372 27.1818 147.409 27.9062C148.446 28.6307 149.767 28.9929 151.372 28.9929Z" fill="#FF6D00"/>
</svg>
